<svg version="1.1" id="Layer_1" xmlns="http://www.w3.org/2000/svg" xmlns:xlink="http://www.w3.org/1999/xlink" x="0px" y="0px"
	 width="100%" viewBox="0 0 577 213" enable-background="new 0 0 577 213" xml:space="preserve">
<path fill="#FDFDFD" opacity="1.000000" stroke="none" 
	d="
M359.000000,214.000000 
	C239.371033,214.000000 120.242073,214.000000 1.056553,214.000000 
	C1.056553,143.060211 1.056553,72.120354 1.056553,1.090248 
	C193.212280,1.090248 385.424622,1.090248 577.818481,1.090248 
	C577.818481,71.999634 577.818481,142.999771 577.818481,214.000000 
	C505.120392,214.000000 432.310211,214.000000 359.000000,214.000000 
M400.095795,86.890686 
	C396.684296,86.907173 393.272766,86.923660 389.245209,86.943443 
	C389.268860,87.993874 389.292480,89.044312 389.626709,90.799355 
	C391.620880,93.506516 393.041199,97.329422 395.719299,98.706818 
	C403.074524,102.489754 411.117798,102.742256 418.946045,99.777031 
	C424.897614,97.522675 427.463654,92.990517 427.155762,86.386383 
	C426.912292,81.164772 424.179718,77.894928 418.014709,75.960060 
	C414.213654,74.767128 410.245239,74.099464 406.465210,72.852585 
	C405.329773,72.478058 404.575439,70.948235 403.646515,69.947662 
	C404.793884,69.155197 405.888824,67.818550 407.101349,67.701645 
	C408.793274,67.538528 411.505463,67.699799 412.161407,68.741844 
	C415.955505,74.768852 421.178162,71.019974 426.019043,71.973656 
	C426.056885,66.575668 424.056305,63.139339 419.999146,61.123158 
	C412.030823,57.163292 403.894836,57.175270 396.009521,61.219620 
	C389.981018,64.311630 387.614349,73.295685 391.830322,78.424187 
	C394.103577,81.189453 397.969818,82.645180 401.056732,85.422653 
	C401.044586,85.909317 401.032410,86.395981 400.095795,86.890686 
M444.005249,85.604767 
	C443.988586,86.123047 443.971924,86.641327 443.044128,87.010338 
	C439.433624,87.010338 435.823151,87.010338 432.238342,87.010338 
	C432.016388,93.236649 433.708740,96.921577 438.240173,98.919029 
	C445.662872,102.190964 453.417084,102.666016 461.096100,99.936516 
	C467.198273,97.767494 469.850037,93.358612 469.697571,86.803246 
	C469.569672,81.303558 466.811096,77.902138 460.480682,75.927742 
	C456.836975,74.791321 453.014893,74.211281 449.404297,72.992233 
	C448.111938,72.555893 447.205048,70.977928 446.122223,69.921028 
	C447.451874,69.119652 448.715424,67.843643 450.129242,67.646698 
	C451.625671,67.438255 454.114868,67.740555 454.703674,68.710320 
	C458.429382,74.846733 463.758636,70.915359 468.527527,72.083702 
	C468.667633,66.849869 466.799103,63.428001 463.017639,61.418770 
	C454.804810,57.054966 446.212921,56.834999 438.280273,61.590340 
	C435.614044,63.188644 433.405823,67.144318 432.848389,70.346367 
	C431.555511,77.772385 434.468140,80.972183 444.005249,85.604767 
M173.016525,103.491676 
	C162.505692,96.095009 158.748703,86.132347 160.478622,73.396233 
	C161.372223,66.817154 160.441452,65.880951 154.015228,66.769745 
	C141.074570,68.559525 131.079041,64.524521 123.504524,53.994789 
	C120.729614,50.137238 117.611473,49.830585 114.745125,53.890766 
	C107.107628,64.709282 96.836121,68.884491 83.801140,66.645180 
	C79.196281,65.854088 76.601341,67.761002 77.476112,72.739746 
	C79.799431,85.962753 75.445702,96.350601 64.530289,104.097557 
	C60.719646,106.802055 60.771690,109.703796 64.548271,112.396729 
	C75.438232,120.161919 79.788315,130.548157 77.485023,143.774658 
	C76.712334,148.211777 78.644516,150.614532 83.325714,149.817108 
	C96.701263,147.538605 107.238617,151.888718 115.100090,162.950775 
	C117.658043,166.550125 120.601448,166.476151 123.130020,162.930450 
	C131.007278,151.884506 141.543533,147.539322 154.916946,149.813904 
	C159.214828,150.544922 161.347748,148.515442 160.611176,144.164764 
	C158.348557,130.800079 162.648544,120.225906 173.702225,112.352409 
	C177.625443,109.557930 177.111618,106.700348 173.016525,103.491676 
M299.482025,74.509605 
	C299.482025,83.096680 299.482025,91.683746 299.482025,100.258759 
	C303.837769,100.258759 307.440643,100.258759 311.824341,100.258759 
	C311.824341,94.082954 311.824341,88.140327 311.824341,81.101837 
	C316.312408,86.313271 320.392914,90.143478 323.350616,94.702179 
	C327.610962,101.268677 333.328552,101.237930 339.877930,100.018822 
	C339.877930,86.546402 339.877930,73.271500 339.877930,59.682365 
	C335.928497,59.682365 332.197113,59.682365 327.805542,59.682365 
	C327.805542,65.931770 327.805542,71.926956 327.805542,79.418785 
	C323.068451,73.790642 318.825775,69.707451 315.762360,64.876465 
	C311.599762,58.312092 305.946045,58.960258 299.482086,59.805321 
	C299.482086,64.569191 299.482086,69.042458 299.482025,74.509605 
M414.046875,119.594589 
	C414.907623,118.480644 415.768341,117.366699 417.228668,115.476723 
	C413.398315,115.476723 410.423340,115.724220 407.506226,115.418793 
	C403.113525,114.958878 400.008118,116.333946 397.431396,120.073128 
	C394.577576,124.214424 391.078033,127.910782 387.859680,131.800903 
	C387.485718,131.661133 387.111755,131.521362 386.737793,131.381592 
	C386.737793,126.195290 386.737793,121.008980 386.737793,115.886658 
	C382.056427,115.886658 378.010284,115.886658 373.986084,115.886658 
	C373.986084,129.566238 373.986084,142.834366 373.986084,156.333282 
	C378.294342,156.333282 382.356232,156.333282 387.006958,156.333282 
	C385.887787,149.918900 387.297852,144.855362 394.530701,142.297852 
	C398.295288,152.490570 403.864441,160.738922 417.229553,155.642075 
	C415.388275,152.632339 413.552246,149.671661 411.756622,146.686630 
	C409.015289,142.129395 403.884338,137.355850 404.240204,133.043137 
	C404.614136,128.511612 410.253174,124.414536 414.046875,119.594589 
M465.316376,122.679283 
	C465.316376,133.902527 465.316376,145.125778 465.316376,156.191925 
	C470.172485,156.191925 474.210419,156.191925 478.660706,156.191925 
	C478.660706,151.160736 478.660706,146.573746 478.660706,141.986755 
	C479.121094,141.607147 479.581451,141.227539 480.041840,140.847931 
	C481.638306,142.168991 483.669250,143.211777 484.733551,144.873672 
	C486.510925,147.649017 487.542786,150.890945 489.152954,153.789551 
	C489.790466,154.937164 491.077881,156.410767 492.167816,156.497391 
	C496.216888,156.819153 500.306915,156.625687 505.057495,156.625687 
	C501.910583,150.408310 499.187408,145.028122 496.424835,139.570099 
	C502.242798,136.247131 504.787109,131.735764 503.714661,125.590164 
	C502.864868,120.720352 499.922241,116.647682 495.170685,116.318993 
	C485.345551,115.639328 475.440582,116.114143 465.316406,116.114143 
	C465.316406,118.096909 465.316406,119.916084 465.316376,122.679283 
M271.623779,145.760422 
	C270.584351,143.749908 269.544891,141.739410 268.556213,139.827057 
	C274.930237,135.106033 276.886871,131.177261 275.832642,125.657242 
	C274.862610,120.577835 271.856140,116.516144 266.836243,116.181564 
	C257.151093,115.536057 247.392487,115.993225 237.835922,115.993225 
	C237.835922,129.648682 237.835922,143.035065 237.835922,156.347168 
	C242.187271,156.347168 246.116364,156.347168 250.607971,156.347168 
	C250.607971,151.337921 250.607971,146.609314 250.607971,141.880707 
	C251.119827,141.515488 251.631668,141.150269 252.143524,140.785049 
	C253.745407,142.148483 255.768997,143.241959 256.853790,144.936447 
	C258.634766,147.718414 259.713745,150.940125 261.284393,153.871567 
	C261.854584,154.935745 262.937714,156.414963 263.868988,156.477310 
	C268.072357,156.758759 272.305237,156.600235 277.180573,156.600235 
	C275.139954,152.599670 273.561768,149.505707 271.623779,145.760422 
M439.502533,156.641190 
	C445.745972,156.641190 451.989380,156.641190 458.186035,156.641190 
	C458.186035,152.866882 458.186035,149.941956 458.186035,146.427521 
	C450.696564,146.427521 443.477203,146.427521 436.170593,146.427521 
	C436.170593,144.246277 436.170593,142.677734 436.170593,140.509644 
	C442.482697,140.509644 448.549286,140.509644 454.701294,140.509644 
	C454.701294,137.291306 454.701294,134.678421 454.701294,131.466156 
	C448.443878,131.466156 442.375122,131.466156 436.144836,131.466156 
	C436.144836,129.291931 436.144836,127.719818 436.144836,125.544449 
	C443.427246,125.544449 450.495117,125.544449 457.725647,125.544449 
	C457.725647,121.991615 457.725647,119.042900 457.725647,115.871368 
	C446.039001,115.871368 434.527374,115.871368 423.164673,115.871368 
	C423.164673,129.643082 423.164673,143.012787 423.164673,156.641144 
	C428.539673,156.641144 433.522705,156.641144 439.502533,156.641190 
M364.455566,75.393410 
	C359.387756,75.198257 362.204895,71.962006 361.863892,69.200768 
	C369.331970,69.200768 376.385986,69.200768 383.331970,69.200768 
	C383.331970,65.683434 383.331970,62.749943 383.331970,59.696575 
	C371.657410,59.696575 360.282684,59.696575 348.868164,59.696575 
	C348.868164,73.427612 348.868164,86.818665 348.868164,100.134460 
	C360.768555,100.134460 372.322632,100.134460 383.889404,100.134460 
	C383.889404,96.806679 383.889404,93.876282 383.889404,90.378494 
	C376.425537,90.378494 369.199951,90.378494 362.011047,90.378494 
	C362.011047,88.072617 362.011047,86.370705 362.011047,84.279854 
	C368.347961,84.279854 374.290039,84.279854 380.252625,84.279854 
	C380.252625,81.156601 380.252625,78.442245 380.252625,75.850372 
	C379.570618,75.632881 379.262726,75.450890 378.953583,75.448708 
	C374.456970,75.416931 369.960175,75.409218 364.455566,75.393410 
M365.567719,147.868973 
	C366.061218,145.403366 366.554718,142.937775 367.150604,139.960632 
	C364.270782,139.960632 362.463440,139.960632 360.656097,139.960632 
	C358.865387,139.960632 357.074707,139.960632 355.462921,139.960632 
	C353.166229,146.324600 350.687592,148.284760 346.096771,147.408752 
	C340.893341,146.415863 339.973724,142.425430 339.850433,137.989532 
	C339.818115,136.825714 339.827789,135.659912 339.848236,134.495560 
	C339.924927,130.130096 340.513306,125.993645 345.687683,124.764969 
	C350.016571,123.737061 352.400604,125.633003 354.847107,131.675583 
	C354.954926,131.941895 355.332703,132.098938 355.314728,132.084106 
	C359.204376,132.084106 362.817688,132.084106 366.395233,132.084106 
	C367.051880,125.278709 364.295807,120.020386 358.659119,116.986969 
	C342.870453,108.490173 326.533051,118.055054 326.505219,135.812408 
	C326.503662,136.810730 326.476990,137.810486 326.519257,138.807144 
	C326.913116,148.090469 331.636871,154.483536 339.717316,156.690857 
	C350.636444,159.673599 360.252777,156.608017 365.567719,147.868973 
M309.400391,152.864288 
	C310.444336,154.120377 311.368195,156.306274 312.554596,156.459488 
	C316.223145,156.933228 319.991669,156.632523 324.340698,156.632523 
	C320.428864,145.730026 316.851318,135.750977 313.267822,125.774048 
	C309.484070,115.239548 309.481659,115.379219 298.136108,115.380600 
	C295.020386,115.380981 293.814850,116.551384 292.867828,119.286118 
	C288.951233,130.596146 284.813080,141.829330 280.790314,153.102859 
	C280.434052,154.101257 280.323761,155.187424 279.876465,157.269974 
	C285.177856,154.725266 292.551880,160.958664 294.579529,151.496033 
	C294.633118,151.245895 295.069946,150.877884 295.302734,150.895676 
	C299.913513,151.248367 304.520538,151.649979 309.400391,152.864288 
M227.742249,60.966850 
	C227.354401,60.480873 226.969696,59.573315 226.578278,59.570419 
	C216.142105,59.493099 205.705215,59.508911 195.243561,59.508911 
	C195.243561,73.382126 195.243561,86.754242 195.243561,100.113373 
	C199.670731,100.113373 203.715942,100.113373 208.210800,100.113373 
	C208.210800,95.105515 208.210800,90.510612 208.210800,85.284424 
	C214.038330,85.284424 219.415436,85.284424 224.743561,85.284424 
	C224.743561,82.048874 224.743561,79.464142 224.743561,76.228043 
	C219.069931,76.228043 213.683441,76.228043 208.379272,76.228043 
	C208.379272,73.659325 208.379272,71.754601 208.379272,69.322571 
	C214.970566,69.322571 221.227280,69.322571 227.775360,69.322571 
	C227.775360,66.476601 227.775360,64.158211 227.742249,60.966850 
M205.372604,127.471100 
	C205.372604,137.058899 205.372604,146.646683 205.372604,156.278046 
	C210.069244,156.278046 214.107208,156.278046 218.711517,156.278046 
	C218.711517,145.884979 218.711517,135.848114 218.711517,125.324318 
	C223.356018,125.324318 227.429993,125.324318 231.520996,125.324318 
	C231.520996,121.877159 231.520996,118.944702 231.520996,115.827225 
	C218.239731,115.827225 205.218536,115.827225 192.078278,115.827225 
	C192.078278,119.113388 192.078278,122.039543 192.078278,125.031319 
	C196.614044,125.526543 200.940475,125.998917 205.372604,127.471100 
M256.128082,69.438843 
	C259.872864,69.438843 263.617645,69.438843 267.744415,69.438843 
	C267.744415,80.164307 267.744415,90.073112 267.744415,100.247299 
	C272.199066,100.247299 276.254913,100.247299 280.872314,100.247299 
	C280.872314,89.940773 280.872314,79.901428 280.872314,69.388237 
	C285.517090,69.388237 289.606720,69.388237 293.705780,69.388237 
	C293.705780,65.840759 293.705780,62.793777 293.705780,59.644501 
	C280.441040,59.644501 267.558136,59.644501 253.765625,59.644501 
	C254.300049,63.127281 254.774017,66.216110 256.128082,69.438843 
M248.014938,99.011909 
	C248.014938,85.964859 248.014938,72.917801 248.014938,59.688725 
	C243.395477,59.688725 239.344391,59.688725 235.206329,59.688725 
	C235.206329,73.365425 235.206329,86.709137 235.206329,100.526505 
	C238.635269,100.526505 241.758392,100.576485 244.878174,100.496384 
	C245.827972,100.472000 246.768570,100.089172 248.014938,99.011909 
z"/>
<path fill="#FF1515" opacity="1.000000" stroke="none" 
	d="
M173.265503,103.742020 
	C177.111618,106.700348 177.625443,109.557930 173.702225,112.352409 
	C162.648544,120.225906 158.348557,130.800079 160.611176,144.164764 
	C161.347748,148.515442 159.214828,150.544922 154.916946,149.813904 
	C141.543533,147.539322 131.007278,151.884506 123.130020,162.930450 
	C120.601448,166.476151 117.658043,166.550125 115.100090,162.950775 
	C107.238617,151.888718 96.701263,147.538605 83.325714,149.817108 
	C78.644516,150.614532 76.712334,148.211777 77.485023,143.774658 
	C79.788315,130.548157 75.438232,120.161919 64.548271,112.396729 
	C60.771690,109.703796 60.719646,106.802055 64.530289,104.097557 
	C75.445702,96.350601 79.799431,85.962753 77.476112,72.739746 
	C76.601341,67.761002 79.196281,65.854088 83.801140,66.645180 
	C96.836121,68.884491 107.107628,64.709282 114.745125,53.890766 
	C117.611473,49.830585 120.729614,50.137238 123.504524,53.994789 
	C131.079041,64.524521 141.074570,68.559525 154.015228,66.769745 
	C160.441452,65.880951 161.372223,66.817154 160.478622,73.396233 
	C158.748703,86.132347 162.505692,96.095009 173.265503,103.742020 
M112.975685,137.463821 
	C114.645348,139.709976 116.315002,141.956146 118.741005,145.219803 
	C125.158653,134.235596 133.516251,131.551788 144.308640,133.571091 
	C144.308640,127.992485 143.067429,122.890625 144.651443,118.914200 
	C146.294586,114.789360 150.673615,111.754379 154.428864,107.610764 
	C144.825348,102.145447 142.313690,93.734222 144.233475,83.536987 
	C138.786453,83.281792 133.696472,84.216331 129.713699,82.532288 
	C125.594330,80.790489 122.549927,76.506409 118.440903,72.797935 
	C113.002525,82.721771 104.332855,84.662994 93.555351,82.990669 
	C96.215149,94.150421 92.854897,102.216270 82.913033,108.320930 
	C93.259956,114.240471 96.027290,122.709023 93.888054,133.257751 
	C97.339508,133.257751 99.817490,133.374054 102.280457,133.231262 
	C106.244087,133.001480 109.958702,133.259048 112.975685,137.463821 
z"/>
<path fill="#090909" opacity="1.000000" stroke="none" 
	d="
M299.482056,74.012665 
	C299.482086,69.042458 299.482086,64.569191 299.482086,59.805321 
	C305.946045,58.960258 311.599762,58.312092 315.762360,64.876465 
	C318.825775,69.707451 323.068451,73.790642 327.805542,79.418785 
	C327.805542,71.926956 327.805542,65.931770 327.805542,59.682365 
	C332.197113,59.682365 335.928497,59.682365 339.877930,59.682365 
	C339.877930,73.271500 339.877930,86.546402 339.877930,100.018822 
	C333.328552,101.237930 327.610962,101.268677 323.350616,94.702179 
	C320.392914,90.143478 316.312408,86.313271 311.824341,81.101837 
	C311.824341,88.140327 311.824341,94.082954 311.824341,100.258759 
	C307.440643,100.258759 303.837769,100.258759 299.482025,100.258759 
	C299.482025,91.683746 299.482025,83.096680 299.482056,74.012665 
z"/>
<path fill="#0A0A0A" opacity="1.000000" stroke="none" 
	d="
M413.819153,119.861099 
	C410.253174,124.414536 404.614136,128.511612 404.240204,133.043137 
	C403.884338,137.355850 409.015289,142.129395 411.756622,146.686630 
	C413.552246,149.671661 415.388275,152.632339 417.229553,155.642075 
	C403.864441,160.738922 398.295288,152.490570 394.530701,142.297852 
	C387.297852,144.855362 385.887787,149.918900 387.006958,156.333282 
	C382.356232,156.333282 378.294342,156.333282 373.986084,156.333282 
	C373.986084,142.834366 373.986084,129.566238 373.986084,115.886658 
	C378.010284,115.886658 382.056427,115.886658 386.737793,115.886658 
	C386.737793,121.008980 386.737793,126.195290 386.737793,131.381592 
	C387.111755,131.521362 387.485718,131.661133 387.859680,131.800903 
	C391.078033,127.910782 394.577576,124.214424 397.431396,120.073128 
	C400.008118,116.333946 403.113525,114.958878 407.506226,115.418793 
	C410.423340,115.724220 413.398315,115.476723 417.228668,115.476723 
	C415.768341,117.366699 414.907623,118.480644 413.819153,119.861099 
z"/>
<path fill="#0B0B0B" opacity="1.000000" stroke="none" 
	d="
M465.316406,122.207275 
	C465.316406,119.916084 465.316406,118.096909 465.316406,116.114143 
	C475.440582,116.114143 485.345551,115.639328 495.170685,116.318993 
	C499.922241,116.647682 502.864868,120.720352 503.714661,125.590164 
	C504.787109,131.735764 502.242798,136.247131 496.424835,139.570099 
	C499.187408,145.028122 501.910583,150.408310 505.057495,156.625687 
	C500.306915,156.625687 496.216888,156.819153 492.167816,156.497391 
	C491.077881,156.410767 489.790466,154.937164 489.152954,153.789551 
	C487.542786,150.890945 486.510925,147.649017 484.733551,144.873672 
	C483.669250,143.211777 481.638306,142.168991 480.041840,140.847931 
	C479.581451,141.227539 479.121094,141.607147 478.660706,141.986755 
	C478.660706,146.573746 478.660706,151.160736 478.660706,156.191925 
	C474.210419,156.191925 470.172485,156.191925 465.316376,156.191925 
	C465.316376,145.125778 465.316376,133.902527 465.316406,122.207275 
M481.778259,124.432053 
	C475.110901,125.214066 479.460846,129.544678 478.426270,132.648651 
	C480.358856,132.648651 481.506836,132.698135 482.649200,132.639282 
	C485.948853,132.469315 490.584351,133.731522 490.573730,128.520157 
	C490.563049,123.291565 485.904083,124.653839 481.778259,124.432053 
z"/>
<path fill="#0B0B0B" opacity="1.000000" stroke="none" 
	d="
M271.803650,146.086090 
	C273.561768,149.505707 275.139954,152.599670 277.180573,156.600235 
	C272.305237,156.600235 268.072357,156.758759 263.868988,156.477310 
	C262.937714,156.414963 261.854584,154.935745 261.284393,153.871567 
	C259.713745,150.940125 258.634766,147.718414 256.853790,144.936447 
	C255.768997,143.241959 253.745407,142.148483 252.143524,140.785049 
	C251.631668,141.150269 251.119827,141.515488 250.607971,141.880707 
	C250.607971,146.609314 250.607971,151.337921 250.607971,156.347168 
	C246.116364,156.347168 242.187271,156.347168 237.835922,156.347168 
	C237.835922,143.035065 237.835922,129.648682 237.835922,115.993225 
	C247.392487,115.993225 257.151093,115.536057 266.836243,116.181564 
	C271.856140,116.516144 274.862610,120.577835 275.832642,125.657242 
	C276.886871,131.177261 274.930237,135.106033 268.556213,139.827057 
	C269.544891,141.739410 270.584351,143.749908 271.803650,146.086090 
M252.112808,124.458611 
	C251.349045,126.941154 250.585266,129.423706 249.623856,132.548660 
	C253.820175,132.548660 256.722290,133.014313 259.344635,132.359528 
	C260.733643,132.012711 262.375610,129.787918 262.517273,128.280624 
	C262.624481,127.140167 260.749512,125.146881 259.374054,124.693245 
	C257.419250,124.048523 255.113297,124.468422 252.112808,124.458611 
z"/>
<path fill="#0B0B0B" opacity="1.000000" stroke="none" 
	d="
M439.004150,156.641174 
	C433.522705,156.641144 428.539673,156.641144 423.164673,156.641144 
	C423.164673,143.012787 423.164673,129.643082 423.164673,115.871368 
	C434.527374,115.871368 446.039001,115.871368 457.725647,115.871368 
	C457.725647,119.042900 457.725647,121.991615 457.725647,125.544449 
	C450.495117,125.544449 443.427246,125.544449 436.144836,125.544449 
	C436.144836,127.719818 436.144836,129.291931 436.144836,131.466156 
	C442.375122,131.466156 448.443878,131.466156 454.701294,131.466156 
	C454.701294,134.678421 454.701294,137.291306 454.701294,140.509644 
	C448.549286,140.509644 442.482697,140.509644 436.170593,140.509644 
	C436.170593,142.677734 436.170593,144.246277 436.170593,146.427521 
	C443.477203,146.427521 450.696564,146.427521 458.186035,146.427521 
	C458.186035,149.941956 458.186035,152.866882 458.186035,156.641190 
	C451.989380,156.641190 445.745972,156.641190 439.004150,156.641174 
z"/>
<path fill="#0B0B0B" opacity="1.000000" stroke="none" 
	d="
M364.959503,75.394592 
	C369.960175,75.409218 374.456970,75.416931 378.953583,75.448708 
	C379.262726,75.450890 379.570618,75.632881 380.252625,75.850372 
	C380.252625,78.442245 380.252625,81.156601 380.252625,84.279854 
	C374.290039,84.279854 368.347961,84.279854 362.011047,84.279854 
	C362.011047,86.370705 362.011047,88.072617 362.011047,90.378494 
	C369.199951,90.378494 376.425537,90.378494 383.889404,90.378494 
	C383.889404,93.876282 383.889404,96.806679 383.889404,100.134460 
	C372.322632,100.134460 360.768555,100.134460 348.868164,100.134460 
	C348.868164,86.818665 348.868164,73.427612 348.868164,59.696575 
	C360.282684,59.696575 371.657410,59.696575 383.331970,59.696575 
	C383.331970,62.749943 383.331970,65.683434 383.331970,69.200768 
	C376.385986,69.200768 369.331970,69.200768 361.863892,69.200768 
	C362.204895,71.962006 359.387756,75.198257 364.959503,75.394592 
z"/>
<path fill="#0B0B0B" opacity="1.000000" stroke="none" 
	d="
M444.047729,84.826782 
	C434.468140,80.972183 431.555511,77.772385 432.848389,70.346367 
	C433.405823,67.144318 435.614044,63.188644 438.280273,61.590340 
	C446.212921,56.834999 454.804810,57.054966 463.017639,61.418770 
	C466.799103,63.428001 468.667633,66.849869 468.527527,72.083702 
	C463.758636,70.915359 458.429382,74.846733 454.703674,68.710320 
	C454.114868,67.740555 451.625671,67.438255 450.129242,67.646698 
	C448.715424,67.843643 447.451874,69.119652 446.122223,69.921028 
	C447.205048,70.977928 448.111938,72.555893 449.404297,72.992233 
	C453.014893,74.211281 456.836975,74.791321 460.480682,75.927742 
	C466.811096,77.902138 469.569672,81.303558 469.697571,86.803246 
	C469.850037,93.358612 467.198273,97.767494 461.096100,99.936516 
	C453.417084,102.666016 445.662872,102.190964 438.240173,98.919029 
	C433.708740,96.921577 432.016388,93.236649 432.238342,87.010338 
	C435.823151,87.010338 439.433624,87.010338 443.519470,87.448029 
	C445.770905,92.107979 449.463318,93.765915 453.861176,92.120087 
	C454.797729,91.769592 456.205444,90.623177 456.116699,90.037094 
	C455.956543,88.978844 455.011627,87.490791 454.076233,87.197670 
	C450.806793,86.173164 447.401459,85.582359 444.047729,84.826782 
z"/>
<path fill="#0B0B0B" opacity="1.000000" stroke="none" 
	d="
M389.861267,86.940147 
	C393.272766,86.923660 396.684296,86.907173 400.674713,87.232986 
	C403.101440,92.078270 406.919373,93.868462 411.403687,92.144676 
	C412.335388,91.786522 413.718719,90.633049 413.631104,90.029350 
	C413.478241,88.976181 412.523529,87.488258 411.589478,87.198250 
	C408.169067,86.136261 404.618744,85.492798 401.117340,84.691734 
	C397.969818,82.645180 394.103577,81.189453 391.830322,78.424187 
	C387.614349,73.295685 389.981018,64.311630 396.009521,61.219620 
	C403.894836,57.175270 412.030823,57.163292 419.999146,61.123158 
	C424.056305,63.139339 426.056885,66.575668 426.019043,71.973656 
	C421.178162,71.019974 415.955505,74.768852 412.161407,68.741844 
	C411.505463,67.699799 408.793274,67.538528 407.101349,67.701645 
	C405.888824,67.818550 404.793884,69.155197 403.646515,69.947662 
	C404.575439,70.948235 405.329773,72.478058 406.465210,72.852585 
	C410.245239,74.099464 414.213654,74.767128 418.014709,75.960060 
	C424.179718,77.894928 426.912292,81.164772 427.155762,86.386383 
	C427.463654,92.990517 424.897614,97.522675 418.946045,99.777031 
	C411.117798,102.742256 403.074524,102.489754 395.719299,98.706818 
	C393.041199,97.329422 391.620880,93.506516 389.582611,90.059784 
	C389.646088,88.526855 389.753693,87.733498 389.861267,86.940147 
z"/>
<path fill="#0B0B0B" opacity="1.000000" stroke="none" 
	d="
M365.402496,148.212189 
	C360.252777,156.608017 350.636444,159.673599 339.717316,156.690857 
	C331.636871,154.483536 326.913116,148.090469 326.519257,138.807144 
	C326.476990,137.810486 326.503662,136.810730 326.505219,135.812408 
	C326.533051,118.055054 342.870453,108.490173 358.659119,116.986969 
	C364.295807,120.020386 367.051880,125.278709 366.395233,132.084106 
	C362.817688,132.084106 359.204376,132.084106 355.314728,132.084106 
	C355.332703,132.098938 354.954926,131.941895 354.847107,131.675583 
	C352.400604,125.633003 350.016571,123.737061 345.687683,124.764969 
	C340.513306,125.993645 339.924927,130.130096 339.848236,134.495560 
	C339.827789,135.659912 339.818115,136.825714 339.850433,137.989532 
	C339.973724,142.425430 340.893341,146.415863 346.096771,147.408752 
	C350.687592,148.284760 353.166229,146.324600 355.462921,139.960632 
	C357.074707,139.960632 358.865387,139.960632 360.656097,139.960632 
	C362.463440,139.960632 364.270782,139.960632 367.150604,139.960632 
	C366.554718,142.937775 366.061218,145.403366 365.402496,148.212189 
z"/>
<path fill="#0B0B0B" opacity="1.000000" stroke="none" 
	d="
M309.264343,152.452972 
	C304.520538,151.649979 299.913513,151.248367 295.302734,150.895676 
	C295.069946,150.877884 294.633118,151.245895 294.579529,151.496033 
	C292.551880,160.958664 285.177856,154.725266 279.876465,157.269974 
	C280.323761,155.187424 280.434052,154.101257 280.790314,153.102859 
	C284.813080,141.829330 288.951233,130.596146 292.867828,119.286118 
	C293.814850,116.551384 295.020386,115.380981 298.136108,115.380600 
	C309.481659,115.379219 309.484070,115.239548 313.267822,125.774048 
	C316.851318,135.750977 320.428864,145.730026 324.340698,156.632523 
	C319.991669,156.632523 316.223145,156.933228 312.554596,156.459488 
	C311.368195,156.306274 310.444336,154.120377 309.264343,152.452972 
M303.009277,130.723587 
	C302.606628,129.943375 302.203949,129.163162 301.326874,127.463707 
	C299.859131,132.622208 298.666504,136.813904 297.385651,141.315613 
	C300.530334,141.315613 303.033783,141.315613 306.097015,141.315613 
	C305.047272,137.700089 304.138214,134.569077 303.009277,130.723587 
z"/>
<path fill="#0C0C0C" opacity="1.000000" stroke="none" 
	d="
M227.758804,61.403339 
	C227.775360,64.158211 227.775360,66.476601 227.775360,69.322571 
	C221.227280,69.322571 214.970566,69.322571 208.379272,69.322571 
	C208.379272,71.754601 208.379272,73.659325 208.379272,76.228043 
	C213.683441,76.228043 219.069931,76.228043 224.743561,76.228043 
	C224.743561,79.464142 224.743561,82.048874 224.743561,85.284424 
	C219.415436,85.284424 214.038330,85.284424 208.210800,85.284424 
	C208.210800,90.510612 208.210800,95.105515 208.210800,100.113373 
	C203.715942,100.113373 199.670731,100.113373 195.243561,100.113373 
	C195.243561,86.754242 195.243561,73.382126 195.243561,59.508911 
	C205.705215,59.508911 216.142105,59.493099 226.578278,59.570419 
	C226.969696,59.573315 227.354401,60.480873 227.758804,61.403339 
z"/>
<path fill="#0C0C0C" opacity="1.000000" stroke="none" 
	d="
M205.319763,126.971191 
	C200.940475,125.998917 196.614044,125.526543 192.078278,125.031319 
	C192.078278,122.039543 192.078278,119.113388 192.078278,115.827225 
	C205.218536,115.827225 218.239731,115.827225 231.520996,115.827225 
	C231.520996,118.944702 231.520996,121.877159 231.520996,125.324318 
	C227.429993,125.324318 223.356018,125.324318 218.711517,125.324318 
	C218.711517,135.848114 218.711517,145.884979 218.711517,156.278046 
	C214.107208,156.278046 210.069244,156.278046 205.372604,156.278046 
	C205.372604,146.646683 205.372604,137.058899 205.319763,126.971191 
z"/>
<path fill="#0C0C0C" opacity="1.000000" stroke="none" 
	d="
M255.688049,69.371895 
	C254.774017,66.216110 254.300049,63.127281 253.765625,59.644501 
	C267.558136,59.644501 280.441040,59.644501 293.705780,59.644501 
	C293.705780,62.793777 293.705780,65.840759 293.705780,69.388237 
	C289.606720,69.388237 285.517090,69.388237 280.872314,69.388237 
	C280.872314,79.901428 280.872314,89.940773 280.872314,100.247299 
	C276.254913,100.247299 272.199066,100.247299 267.744415,100.247299 
	C267.744415,90.073112 267.744415,80.164307 267.744415,69.438843 
	C263.617645,69.438843 259.872864,69.438843 255.688049,69.371895 
z"/>
<path fill="#0B0B0B" opacity="1.000000" stroke="none" 
	d="
M247.864166,99.441208 
	C246.768570,100.089172 245.827972,100.472000 244.878174,100.496384 
	C241.758392,100.576485 238.635269,100.526505 235.206329,100.526505 
	C235.206329,86.709137 235.206329,73.365425 235.206329,59.688725 
	C239.344391,59.688725 243.395477,59.688725 248.014938,59.688725 
	C248.014938,72.917801 248.014938,85.964859 247.864166,99.441208 
z"/>
<path fill="#D8D8D8" opacity="1.000000" stroke="none" 
	d="
M401.087036,85.057190 
	C404.618744,85.492798 408.169067,86.136261 411.589478,87.198250 
	C412.523529,87.488258 413.478241,88.976181 413.631104,90.029350 
	C413.718719,90.633049 412.335388,91.786522 411.403687,92.144676 
	C406.919373,93.868462 403.101440,92.078270 401.136932,87.228966 
	C401.032410,86.395981 401.044586,85.909317 401.087036,85.057190 
z"/>
<path fill="#DCDCDC" opacity="1.000000" stroke="none" 
	d="
M444.026489,85.215775 
	C447.401459,85.582359 450.806793,86.173164 454.076233,87.197670 
	C455.011627,87.490791 455.956543,88.978844 456.116699,90.037094 
	C456.205444,90.623177 454.797729,91.769592 453.861176,92.120087 
	C449.463318,93.765915 445.770905,92.107979 443.975037,87.522667 
	C443.971924,86.641327 443.988586,86.123047 444.026489,85.215775 
z"/>
<path fill="#D8D8D8" opacity="1.000000" stroke="none" 
	d="
M389.553223,86.941795 
	C389.753693,87.733498 389.646088,88.526855 389.427307,89.707474 
	C389.292480,89.044312 389.268860,87.993874 389.553223,86.941795 
z"/>
<path fill="#FFFBFB" opacity="1.000000" stroke="none" 
	d="
M112.715851,137.208160 
	C109.958702,133.259048 106.244087,133.001480 102.280457,133.231262 
	C99.817490,133.374054 97.339508,133.257751 93.888054,133.257751 
	C96.027290,122.709023 93.259956,114.240471 82.913033,108.320930 
	C92.854897,102.216270 96.215149,94.150421 93.555351,82.990669 
	C104.332855,84.662994 113.002525,82.721771 118.440903,72.797935 
	C122.549927,76.506409 125.594330,80.790489 129.713699,82.532288 
	C133.696472,84.216331 138.786453,83.281792 144.233475,83.536987 
	C142.313690,93.734222 144.825348,102.145447 154.428864,107.610764 
	C150.673615,111.754379 146.294586,114.789360 144.651443,118.914200 
	C143.067429,122.890625 144.308640,127.992485 144.308640,133.571091 
	C133.516251,131.551788 125.158653,134.235596 118.741005,145.219803 
	C116.315002,141.956146 114.645348,139.709976 112.715851,137.208160 
z"/>
<path fill="#DCDCDC" opacity="1.000000" stroke="none" 
	d="
M482.201691,124.431870 
	C485.904083,124.653839 490.563049,123.291565 490.573730,128.520157 
	C490.584351,133.731522 485.948853,132.469315 482.649200,132.639282 
	C481.506836,132.698135 480.358856,132.648651 478.426270,132.648651 
	C479.460846,129.544678 475.110901,125.214066 482.201691,124.431870 
z"/>
<path fill="#DCDCDC" opacity="1.000000" stroke="none" 
	d="
M252.535095,124.446030 
	C255.113297,124.468422 257.419250,124.048523 259.374054,124.693245 
	C260.749512,125.146881 262.624481,127.140167 262.517273,128.280624 
	C262.375610,129.787918 260.733643,132.012711 259.344635,132.359528 
	C256.722290,133.014313 253.820175,132.548660 249.623856,132.548660 
	C250.585266,129.423706 251.349045,126.941154 252.535095,124.446030 
z"/>
<path fill="#D4D4D4" opacity="1.000000" stroke="none" 
	d="
M303.119202,131.080826 
	C304.138214,134.569077 305.047272,137.700089 306.097015,141.315613 
	C303.033783,141.315613 300.530334,141.315613 297.385651,141.315613 
	C298.666504,136.813904 299.859131,132.622208 301.326874,127.463707 
	C302.203949,129.163162 302.606628,129.943375 303.119202,131.080826 
z"/>
</svg>